<svg xmlns="http://www.w3.org/2000/svg" viewBox="0 0 32 32" width="39" height="39" style="border-color: rgba(187,187,187,1);border-width: 0px;border-style: solid" filter="none">
    
    <g>
    <path d="M25.024 0.032v4.672h3.872v27.264c-0.256 0-0.48 0.032-0.736 0.032h-18.848c-3.328 0-6.144-2.656-6.176-5.952-0.064-7.104-0.064-14.24 0-21.376 0-2.784 1.984-4.608 4.896-4.64 3.84-0.064 7.68-0.032 11.52-0.032h4.672c0.224 0 0.48 0.032 0.8 0.032zM27.52 30.24v-23.904h-2.496v17.216h-0.864c-4.96 0-9.92-0.032-14.88 0.032-0.896 0.032-1.856 0.288-2.72 0.64-1.28 0.608-1.824 1.92-1.6 3.488 0.16 1.248 1.056 2.112 2.464 2.368 0.448 0.096 0.896 0.16 1.344 0.16h18.752zM15.36 9.792h-4.512c-0.48 0-0.896 0.096-0.896 0.64 0 0.576 0.416 0.704 0.896 0.672h8.992c0.512 0 0.992-0.096 0.96-0.704 0-0.544-0.48-0.608-0.928-0.608h-4.512zM15.36 7.648c1.504 0 3.008-0.032 4.512 0 0.48 0 0.928-0.064 0.928-0.64 0.032-0.608-0.448-0.704-0.96-0.704h-8.928c-0.48 0-0.96 0.096-0.96 0.704s0.512 0.64 0.992 0.64c1.472-0.032 2.944 0 4.416 0zM15.36 13.28h-4.576c-0.448 0-0.832 0.096-0.832 0.64s0.384 0.64 0.864 0.64h9.152c0.448 0 0.864-0.128 0.832-0.64 0-0.544-0.384-0.64-0.864-0.64h-4.576zM25.12 27.52h-16.064c-0.192 0-0.448 0.064-0.576-0.032-0.256-0.192-0.544-0.48-0.576-0.736-0.032-0.192 0.352-0.448 0.576-0.64 0.096-0.064 0.32-0.032 0.448-0.032h14.944c1.344 0 1.344 0 1.248 1.44z" fill="rgba(64.005,148.92,228.99,1)"></path>
    </g>
  </svg>