<svg xmlns="http://www.w3.org/2000/svg" viewBox="0 0 32 32" width="24" height="24" style="border-color: rgba(187,187,187,1);border-width: 0px;border-style: solid" filter="none">
    
    <g>
    <path d="M11.581 5.333l3.476-3.476c0.241-0.241 0.575-0.39 0.943-0.39s0.701 0.149 0.943 0.39l3.476 3.476h4.915c0.736 0 1.333 0.597 1.333 1.333v0 4.915l3.476 3.476c0.241 0.241 0.39 0.575 0.39 0.943s-0.149 0.701-0.39 0.943l-3.476 3.476v4.915c0 0.736-0.597 1.333-1.333 1.333v0h-4.915l-3.476 3.476c-0.241 0.241-0.575 0.39-0.943 0.39s-0.701-0.149-0.943-0.39l-3.476-3.476h-4.915c-0.736 0-1.333-0.597-1.333-1.333v0-4.915l-3.476-3.476c-0.241-0.241-0.39-0.575-0.39-0.943s0.149-0.701 0.39-0.943l3.476-3.476v-4.915c0-0.736 0.597-1.333 1.333-1.333v0h4.915zM8 8v4.687l-3.313 3.313 3.313 3.313v4.687h4.687l3.313 3.313 3.313-3.313h4.687v-4.687l3.313-3.313-3.313-3.313v-4.687h-4.687l-3.313-3.313-3.313 3.313h-4.687zM16 21.333c-2.946 0-5.333-2.388-5.333-5.333s2.388-5.333 5.333-5.333v0c2.946 0 5.333 2.388 5.333 5.333s-2.388 5.333-5.333 5.333v0zM16 18.667c1.473 0 2.667-1.194 2.667-2.667s-1.194-2.667-2.667-2.667v0c-1.473 0-2.667 1.194-2.667 2.667s1.194 2.667 2.667 2.667v0z" fill="rgba(255,255,255,1)"></path>
    </g>
  </svg>